<?xml version="1.0" encoding="utf-8"?>
<!-- Generator: Adobe Illustrator 16.0.0, SVG Export Plug-In . SVG Version: 6.00 Build 0)  -->
<!DOCTYPE svg PUBLIC "-//W3C//DTD SVG 1.1//EN" "http://www.w3.org/Graphics/SVG/1.1/DTD/svg11.dtd">
<svg version="1.1" xmlns="http://www.w3.org/2000/svg" xmlns:xlink="http://www.w3.org/1999/xlink" x="0px" y="0px"
	 width="510.236px" height="510.236px" viewBox="0 0 510.236 510.236" enable-background="new 0 0 510.236 510.236"
	 xml:space="preserve">
<g id="Layer_1" display="none">
	<g display="inline">
		<path fill-rule="evenodd" clip-rule="evenodd" d="M337.894,206.938c0,4.284,0.078,8.568-0.032,12.848
			c-0.061,2.348,1.142,2.738,3.116,2.736c19.648-0.011,39.295,0.014,58.942,0.086c2.084,0.008,3.165-0.618,3.013-2.854
			c-0.092-1.337,0.124-2.699-0.017-4.026c-0.505-4.763,1.368-6.659,6.322-6.423c7.204,0.343,14.441,0.22,21.655,0.01
			c4.554-0.133,6.469,2.063,6.623,6.269c0.104,2.852,0.301,5.733,0.017,8.558c-0.337,3.339,1.007,3.903,4.029,3.714
			c5.188-0.325,10.405-0.152,15.61-0.209c2.904-0.031,5.959,0.631,7.283-3.365c0.518-1.562,2.668-1.748,4.432-1.742
			c7.221,0.025,14.442,0.064,21.662-0.037c3.833-0.055,5.535,1.732,5.513,5.467c-0.036,5.877-0.006,11.754-0.032,17.63
			c-0.021,4.368-1.651,6.849-6.62,6.651c-6.873-0.275-13.767-0.096-20.651,0.004c-2.198,0.031-4.523-0.389-5.019-2.463
			c-0.933-3.898-3.521-3.699-6.447-3.645c-5.205,0.099-10.414,0.141-15.616-0.004c-2.686-0.074-4.397,0.666-3.943,3.604
			c0.936,6.039-2.907,9.029-6.675,12.932c-8.448,8.749-18.011,12.346-30.086,11.146c-7.638-0.758-15.427,0.119-23.142-0.011
			c-4.092-0.069-7.563,0.696-10.273,4.028c-4.183,5.142-10.142,4.77-15.795,4.394c-4.592-0.306-5.236,1.536-4.755,5.498
			c1.263,10.407,5.394,19.943,8.56,29.774c2.712,8.419,1.056,11.427-7.327,14.188c-9.673,3.185-19.274,6.589-28.887,9.959
			c-9.388,3.291-12.959,1.563-16.316-7.947c-6.129-17.36-11.734-34.836-12.017-55.05c-2.47,4.147-4.403,7.062-6.004,10.148
			c-3.813,7.358-10.081,10.403-18.032,10.563c-5.54,0.109-11.084,0.161-16.624,0.07c-2.31-0.037-3.703,0.742-4.671,2.89
			c-2.472,5.483-5.076,10.907-7.741,16.299c-0.68,1.376-0.774,2.378,0.326,3.561c3.135,3.37,2.135,6.774-0.251,9.984
			c-2.595,3.489-6.173,4.844-10.198,3.101c-7.979-3.456-15.908-7.062-23.669-10.978c-3.94-1.987-6.466-5.433-5.835-10.219
			c0.399-3.036-0.681-4.731-3.283-6.432c-6.864-4.486-13.424-9.438-20.129-14.17c-2.845-2.01-4.003-4.604-3.867-8.155
			c0.239-6.204-0.036-12.427,0.148-18.635c0.081-2.717-0.419-3.809-3.518-3.619c-5.857,0.361-11.749,0.245-17.625,0.204
			c-2.611-0.018-5.182,0.334-7.061,2.088c-7.095,6.626-14.338,13.09-17.934,22.612c-2.71,7.178-5.958,14.164-9.233,21.11
			c-1.166,2.474-1.406,4.414-0.058,6.931c2.959,5.522-1.468,12.618-7.792,12.802c-1.667,0.049-3.264-0.195-4.905-0.784
			c-8.8-3.153-17.702-6.022-26.484-9.224c-9.587-3.494-12.038-12.183-5.408-19.874c8.191-9.503,15.722-19.705,26.383-26.788
			c1.566-1.041,2.8-2.467,1.568-4.14c-3.399-4.619-2.738-9.863-2.696-15.002c0.024-2.934-0.965-4.395-4.07-4.193
			c-1.665,0.109-3.379-0.332-5.024-0.137c-8.244,0.984-14.161-2.003-19.111-8.884c-4.298-5.976-3.384-11.633-1.396-17.553
			c1.844-5.491,6.093-8.364,11.898-8.38c24.682-0.059,49.366-0.148,74.046,0.076c6.994,0.063,7.747,1.387,7.747,8.657
			c0.001,8.981,0.001,8.977,8.878,8.975c19.479-0.006,38.96-0.139,58.437,0.085c4.759,0.055,8.856-0.984,12.747-3.569
			c6.526-4.337,13.203-7.313,21.6-5.813c5.696,1.019,11.726,0.041,17.595,0.264c3.531,0.133,4.519-1.26,3.829-4.492
			c-0.243-1.139-0.404-2.364-0.252-3.504c0.507-3.822-0.829-5.098-4.756-4.385c-3.346,0.605-6.074-0.424-5.83-4.721
			c0.082-1.457-0.732-2.365-2.143-2.035c-3.747,0.875-8.881-2.752-11.062,3.481c-0.483,1.386-2.317,1.056-3.647,1.062
			c-3.19,0.012-6.405-0.248-9.566,0.054c-4.598,0.44-6.576-1.739-6.655-5.991c-0.11-6.043-0.291-12.099-0.003-18.129
			c0.3-6.248,2.077-7.463,8.448-6.743c2.987,0.337,5.97,0.731,8.964,0.989c1.838,0.158,3.638,0.727,3.715,2.667
			c0.287,7.226,5.528,2.38,8.252,3.271c3.503,1.143,2.685-2.284,2.812-4.23c0.275-4.234,2.408-6.447,6.693-6.455
			c10.41-0.02,20.821-0.041,31.23-0.029c4.187,0.004,6.732,2.07,6.879,6.309c0.101,2.892,1.308,3.785,4.039,3.611
			c2.844-0.181,5.742-0.331,8.555,0.014c7.116,0.876,13.072-0.568,17.541-6.757c1.933-2.677,5.077-3.526,8.521-3.419
			c5.872,0.185,11.754,0.023,17.63,0.084c5.777,0.06,8.378,3.867,5.662,9.068c-4.412,8.452-9.329,16.643-14.026,24.947
			c-1.222,2.16-3.112,2.789-5.497,2.739c-4.532-0.097-9.068-0.098-13.6,0.003C342.629,210.001,339.84,210.118,337.894,206.938z
			 M209.775,256.328c0-0.019,0-0.036,0-0.055c-1.172,0-2.345-0.024-3.517,0.004c-13.312,0.324-10.639-1.811-11.739,11.396
			c-0.905,10.855,1.803,18.92,12.072,23.611c0.297,0.136,0.533,0.4,0.803,0.6c1.875,1.378,2.889,0.955,4.179-1.13
			c4.92-7.948,10.15-15.702,15.233-23.548c3.897-6.018,1.776-10.329-5.482-10.83C217.492,256.109,213.626,256.328,209.775,256.328z
			 M296.567,243.106c0,0.008,0,0.014,0,0.021c-5.529,0-11.058-0.018-16.586,0.007c-3.655,0.015-5.476,1.942-5.675,5.544
			c-0.214,3.854,1.515,6.291,5.403,6.338c10.885,0.133,21.772,0.088,32.657-0.029c3.796-0.042,5.927-2.231,5.777-6.064
			c-0.156-4.014-2.372-5.949-6.5-5.846C306.621,243.202,301.592,243.106,296.567,243.106z M261.616,286.917
			c2.003,0,4.02,0.146,6.007-0.032c3.515-0.316,5.154-2.741,5.895-5.875c0.498-2.106,0.999-4.303-1.18-5.931
			c-3.887-2.907-13.547-0.387-15.687,4.102C252.893,287.064,252.893,287.064,261.616,286.917z M323.669,210.929
			c-1.358-0.668-1.642-0.926-1.93-0.932c-3.014-0.051-6.027-0.076-9.041-0.08c-7.417-0.01-7.265-0.012-6.976,7.253
			c0.153,3.841,1.225,6.022,5.543,5.337c1.47-0.234,3.018-0.149,4.513-0.019c2.508,0.22,3.819-0.554,3.457-3.327
			C318.787,215.722,319.192,212.577,323.669,210.929z M334.813,315.106c0.085-3.858-2.152-5.579-6.034-4.455
			c-3.173,0.918-6.345,1.854-9.472,2.914c-2.108,0.716-5.308,0.377-3.849,4.551c1.161,3.317,2.549,4.647,6.117,3.179
			c3.499-1.438,7.22-2.333,10.789-3.617C333.451,317.286,335.193,317.208,334.813,315.106z M315.576,301.157
			c0.499-0.051,1.018-0.034,1.494-0.165c3.039-0.835,6.048-1.785,9.106-2.538c2.931-0.72,4.526-1.444,3.528-5.385
			c-1.1-4.347-3.336-3.123-5.848-2.477c-3.214,0.827-6.377,1.866-9.616,2.571c-1.974,0.43-3.342,1.277-2.348,3.266
			C312.767,298.175,311.713,301.689,315.576,301.157z M405.078,242.454c-6.871-0.176-6.651-0.165-6.913,5.101
			c-0.197,3.964,1.156,5.599,5.157,5.143c1.983-0.226,4.014-0.074,6.022-0.062c2.458,0.016,3.53-1.135,3.747-3.637
			C413.597,243.172,413.056,242.656,405.078,242.454z M378.131,252.604c3.413,0,7.104,1.016,6.863-4.574
			c-0.159-3.71-1.024-5.794-5.173-5.127c-3.396,0.545-8.146-1.645-8.208,4.914C371.563,253.04,374.783,252.824,378.131,252.604z
			 M349.159,243.083c-3.43-0.575-5.992,0.485-5.942,4.436c0.041,3.318,1.304,5.516,5.461,5.268c3.752-0.225,5.872-1.021,5.917-5.351
			C354.638,243.297,352.495,242.708,349.159,243.083z"/>
		<path fill-rule="evenodd" clip-rule="evenodd" d="M61.389,167.05c11.373,0.632,23.62,5.908,33.42,16.535
			c1.976,2.143,3.083,4.723,3.414,7.653c0.623,5.521-0.807,7.673-6.245,8.644c-6.069,1.086-12.162,2.063-18.269,2.91
			c-20.629,2.861-26.873,32.21-16.715,42.217c11.989,11.81,5.219,23.31-4.507,30.784c-5.315,4.085-11.58,5.884-18.155,6.485
			c-1.849,0.171-4.391,0.995-5.458-1.293c-1.145-2.449-0.214-5.042,1.437-6.981c1.258-1.478,3.063-2.551,4.756-3.589
			c8.045-4.938,8.443-9.119,1.488-15.691c-5.963-5.634-12.18-11.023-17.065-17.705c-2.825-3.863-4.817-8.087-5.038-12.883
			c-0.403-8.713-0.501-17.471,0.65-26.113c0.736-5.521,3.634-10.365,7.314-14.592C30.57,174.061,45.868,167.14,61.389,167.05z"/>
	</g>
</g>
<g id="Layer_10" display="none">
	<g display="inline">
		<path fill-rule="evenodd" clip-rule="evenodd" d="M255.119,14.173c-110.115,0-199.381,89.266-199.381,199.381
			c0,60.709,27.141,115.072,69.942,151.641l57.617-17.553c-47.777-25.644-80.268-76.068-80.268-134.088
			c0-34.021,11.173-65.433,30.047-90.769l34.271,34.271c5.861-14.239,15.888-27.403,28.183-37.814l-29.185-29.186
			c24.982-17.99,55.639-28.593,88.775-28.593c83.996,0,152.09,68.093,152.09,152.09c0,33.135-10.613,63.785-28.603,88.767
			l-34.855-34.854c-3.504,15.673-11.976,30.512-23.451,42.545l25.574,25.573c-5.847,4.354-12.004,8.314-18.454,11.806l57.484,17.512
			c42.602-36.565,69.595-90.801,69.595-151.348C454.499,103.439,365.233,14.173,255.119,14.173z"/>
		<g>
			<path fill-rule="evenodd" clip-rule="evenodd" d="M471.338,455.489c-7.198-34.342-32.936-51.095-64.622-60.23
				c-15.217-4.388-30.346-9.072-45.568-13.44c-14.65-4.203-29.568-6.973-44.248-10.915c-11.188-3.005-15.464-18.237-15.464-28.543
				c0-7.972,2.601-15.334,6.993-21.291v-0.428c4.222-3.212,8.198-6.779,11.87-10.63L167.346,157.057
				c-3.608,8.766-5.64,17.937-5.64,27.125l2.998,67.542c0,26.785,15.751,53.064,37.998,69.592
				c4.285,5.915,6.818,13.182,6.818,21.044c0,7.564-2.338,16.182-7.412,21.983c-5.896,6.743-16.142,7.214-24.217,9.523
				c-11.253,3.22-22.65,5.938-33.809,9.486c-26.482,8.418-54.072,14.144-77.214,31.007c-21.016,15.313-30.559,36.187-31.145,61.804
				c-0.235,10.284,5.313,15.404,14.431,16.991c8.12,1.411,16.438,2.461,24.657,2.385c122.787-1.136,245.617,3.159,368.363-2.395
				C475.915,491.664,478.284,488.604,471.338,455.489z"/>
			<path fill-rule="evenodd" clip-rule="evenodd" d="M343.75,267.466c1.158-5.181,1.782-10.45,1.782-15.742l2.997-67.542
				c0-44.144-47.775-87.921-91.917-87.921h-3.988c-20.029,0-40.599,9.014-57.097,22.982L343.75,267.466z"/>
		</g>
	</g>
</g>
<g id="protecao">
	<g>
		<path fill-rule="evenodd" clip-rule="evenodd" d="M384.699,281.015c-16.852,0-33.714,0.376-50.543-0.245
			c-4.623-0.169-9.934-2.332-13.551-5.278c-10.77-8.762-20.7-18.552-31.316-27.515c-2.535-2.142-6.454-3.699-9.747-3.714
			c-16.568-0.079-33.154,0.165-49.699,0.972c-3.556,0.174-7.509,2.527-10.357,4.956c-8.743,7.456-17.133,15.336-25.468,23.251
			c-4.879,4.637-10.24,7.022-17.155,7.022c-34.232,0-68.465,0.241-102.698,0.583c-7.719,0.078-12.173-4-14.12-10.652
			c-6.426-21.953-12.672-43.965-18.404-66.105c-0.872-3.373,0.577-7.955,2.316-11.257c2.84-5.385,6.128-10.863,10.417-15.097
			c14.608-14.421,16.519-32.059,14.669-51.105c-3.121-32.15-6.026-64.319-8.854-96.496c-0.884-10.072,3.32-14.614,13.119-14.833
			c21.921-0.489,43.841-1.031,65.763-1.32c12.62-0.163,15.993,1.953,19.814,14.217c3.63,11.655,6.326,23.62,9.031,35.54
			c2.307,10.163,7.661,18.031,16.1,23.965c2.182,1.533,4.594,2.906,6.354,4.846c12.65,13.953,28.673,16.836,46.646,15.943
			c17.873-0.89,35.834,0.172,53.741-0.285c5.055-0.132,10.638-1.604,14.977-4.16c24.592-14.489,39.823-34.996,43.202-64.409
			c2.799-24.385,5.677-25.676,30.222-25.266c19.511,0.326,39.025,0.417,58.534,0.784c9.763,0.185,11.953,2.213,11.294,12.123
			c-1.614,24.229-3.861,48.413-5.578,72.634c-1.075,15.174-1.979,30.377-2.337,45.58c-0.268,11.351,5.696,20.551,12.969,28.492
			c13.692,14.943,19.749,30.087,10.112,50.5c-6.246,13.235-7.786,28.653-11.799,42.99c-2.956,10.555-6.282,13.009-17.106,13.109
			c-16.847,0.16-33.697,0.044-50.548,0.044C384.699,280.892,384.699,280.952,384.699,281.015z"/>
		<path fill-rule="evenodd" clip-rule="evenodd" d="M435.689,395.93c0,18.103,0.22,35.622-0.105,53.136
			c-0.133,7.275-4.523,12.348-11.779,13.019c-18.362,1.702-31.166,12.765-43.434,24.786c-6.727,6.593-14.486,9.263-23.849,9.191
			c-66.819-0.515-133.642-1.085-200.464-0.912c-11.235,0.027-18.717-5.267-25.974-11.884
			c-12.006-10.953-24.517-20.216-41.667-21.354c-6.504-0.43-11.348-4.139-11.322-11.99c0.039-11.987-0.484-23.972-0.475-35.959
			c0.005-5.805,0.676-11.607,1.1-18.259c11.443,2.517,22.541,4.949,33.631,7.395c8.787,1.94,10.902-0.016,9.169-8.705
			c-1.401-7.034-4.802-12.034-12.434-13.931c-8.503-2.113-16.896-4.831-25.085-7.95c-2.304-0.877-4.969-3.89-5.342-6.26
			c-2.438-15.529-4.385-31.14-6.316-46.748c-1.711-13.814,0.715-16.416,14.937-16.642c33.936-0.539,67.875-0.976,101.806-1.771
			c3.32-0.078,7.224-1.62,9.765-3.774c10.185-8.633,19.932-17.786,29.868-26.717c1.379-1.238,2.945-3.36,4.357-3.307
			c18.131,0.689,37.454-9.407,53.986,6.297c8.514,8.091,17.495,15.743,26.747,22.975c3.228,2.521,7.869,4.41,11.92,4.514
			c34.463,0.885,68.938,1.248,103.41,1.856c10.78,0.188,12.953,3.125,11.671,13.61c-1.94,15.877-3.847,31.779-5.014,47.726
			c-0.409,5.599-2.505,8-7.552,9.383c-7.438,2.034-14.671,4.812-22.099,6.89c-7.566,2.119-11.573,6.787-12.788,14.561
			c-1.139,7.292,0.991,10.078,8.389,8.564c9.64-1.972,19.143-4.608,28.714-6.915C430.711,396.45,432.025,396.403,435.689,395.93z
			 M255.6,371.078c0-0.024,0-0.05,0-0.075c-12.292,0-24.634,0.665-36.864-0.22c-9.219-0.664-15.875,3.147-22.282,8.605
			c-4.646,3.956-6.307,13.307-3.006,18.229c4.251,6.332,9.596,5.507,15.249,1.905c2.24-1.426,4.5-3.003,6.978-3.837
			c5.12-1.721,10.365-4.081,15.612-4.219c12.263-0.329,24.588,1.213,36.829,0.671c13.365-0.593,26.742-3.079,37.263,8.372
			c0.485,0.527,1.633,1.051,2.177,0.831c4.671-1.859,10.075-3.019,13.573-6.226c1.86-1.708,1.898-8.169,0.143-10.552
			c-5.97-8.094-13.613-13.942-24.782-13.589C282.873,371.41,269.232,371.078,255.6,371.078z"/>
	</g>
</g>
<g id="substancias" display="none">
	<g display="inline">
		<path fill-rule="evenodd" clip-rule="evenodd" d="M394.783,377.209c-7.603,8.092-15.8,15.62-26.949,18.069
			c-20.782,4.564-37.994-2.61-52.088-17.782c-9.766-10.513-14.515-22.84-14.187-37.63c0.616-27.816,0.201-55.655,0.212-83.484
			c0.01-24.713,15.823-45.367,39.972-50.508c17.677-3.764,33.601,0.989,46.949,13.488c2.054,1.923,4.062,3.896,6.091,5.847
			C394.783,275.875,394.783,326.542,394.783,377.209z M353.775,305.504c-7.659,0-15.326,0.211-22.974-0.081
			c-4.433-0.169-5.962,1.621-5.92,5.805c0.116,11.321-0.06,22.646,0.116,33.965c0.225,14.408,12.221,27.093,26.123,27.894
			c17.63,1.015,30.804-8.496,32.346-24.608c1.152-12.037,0.934-24.229,0.857-36.35c-0.024-3.92-2.408-6.727-7.073-6.653
			C369.427,305.597,361.6,305.508,353.775,305.504z"/>
		<path fill-rule="evenodd" clip-rule="evenodd" d="M181.805,272.958c5.888,0,10.858-0.011,15.829,0.002
			c26.494,0.07,52.989,0.223,79.484,0.138c3.923-0.013,5.074,1.084,5.091,5.052c0.085,21.159,0.319,42.321,0.802,63.474
			c0.455,19.962,6.756,37.775,20.503,52.626c0.541,0.585,0.984,1.26,2.023,2.605c-2.032,0.187-3.398,0.428-4.764,0.42
			c-30.49-0.185-60.98-0.406-91.469-0.599c-16.658-0.105-33.318-0.081-49.976-0.311c-4.296-0.059-8.64-0.553-12.863-1.363
			c-21.546-4.131-29.589-21.904-30.869-38.9c-0.702-9.32,1.193-18.172,5.68-26.432c19.51-35.921,38.975-71.866,58.542-107.755
			c3.887-7.129,6.074-14.381,5.88-22.724c-0.45-19.303-0.144-38.624-0.144-57.999c-2.387-0.834-4.618-1.408-6.668-2.369
			c-6.269-2.941-8.873-8.791-7.231-15.844c1.257-5.398,6.947-9.974,12.869-9.982c34.994-0.049,69.988-0.045,104.982,0.001
			c6.317,0.008,12.685,5.15,13.431,10.554c1.201,8.685-1.771,13.711-9.574,16.151c-1.256,0.393-2.543,0.685-4.259,1.142
			c0,7.787,0.048,15.724-0.011,23.66c-0.097,13.163-0.325,26.325-0.334,39.488c-0.002,2.25,0.146,4.996,1.38,6.653
			c3.167,4.256,2.347,7.663,0.131,12.159c-3.887,7.887-6.686,16.311-9.985,24.625c-0.524-0.8-1.588-2.18-2.397-3.694
			c-5.018-9.376-10.024-18.758-14.912-28.201c-0.81-1.563-1.438-3.434-1.446-5.166c-0.096-22.149-0.063-44.298-0.063-67.021
			c-15.789,0-31.38,0-47.722,0c0,1.019-0.004,2.6,0.001,4.181c0.06,19.329,0.37,38.663,0.008,57.984
			c-0.093,4.932-1.467,10.261-3.72,14.654c-7.808,15.227-16.272,30.117-24.457,45.152
			C184.396,267.486,183.385,269.743,181.805,272.958z M175.928,351.998c0.053,6.294,4.735,10.932,11.063,10.96
			c6.362,0.028,11.604-5.077,11.557-11.254c-0.048-6.253-5.173-11.233-11.59-11.263C180.61,340.412,175.872,345.376,175.928,351.998
			z M228.579,318.693c-0.135-5.847-5.433-10.513-11.759-10.357c-5.986,0.146-10.858,5.007-10.8,10.773
			c0.057,5.584,5.79,10.686,11.802,10.5C223.78,329.425,228.711,324.421,228.579,318.693z"/>
	</g>
</g>
<g id="corpo-a-corpo" display="none">
	<g display="inline">
		<path fill-rule="evenodd" clip-rule="evenodd" d="M390.103,85.331c2.561,5.621,5.753,10.572,7.12,15.984
			c6.114,24.196,8.621,48.714,4.688,73.593c-3.126,19.77-11.448,37.164-25.17,51.605c-30.405,31.999-61.209,63.616-91.719,95.516
			c-3.2,3.346-5.598,2.652-8.396,0.045c-4.265-3.973-8.607-7.869-12.749-11.967c-15.155-14.99-30.257-30.035-45.327-45.109
			c-1.499-1.5-2.646-3.352-2.167-3.797C273.948,202.926,331.511,144.648,390.103,85.331z"/>
		<path fill-rule="evenodd" clip-rule="evenodd" d="M183.207,288.127c-1.852-4.621-3.737-8.852-5.243-13.215
			c-1.554-4.502-0.015-8.605,2.752-12.135c4.405-5.621,10.378-5.945,15.429-0.83c4.796,4.857,9.2,10.107,14.058,14.898
			c22.408,22.098,44.889,44.123,67.414,66.104c3.254,3.176,6.104,6.301,4.134,11.23c-2.17,5.428-6.281,8.549-12.057,9.102
			c-7.668,0.734-13.912-2.643-19.378-7.582c-6.142-5.549-12.113-11.287-17.699-16.512c-16.074,15.037-31.725,29.969-47.749,44.486
			c-4.531,4.105-6.47,8.439-5.93,14.389c0.729,8.025-1.473,15.168-7.585,20.734c-8.157,7.428-19.93,8.576-29.726,0.686
			c-10.812-8.709-20.854-18.611-30.005-29.068c-7.591-8.674-6.633-20.205,1.438-28.594c10.732-11.154,22.448-21.359,33.186-32.51
			c10.367-10.768,20.028-22.213,29.997-33.363C178.562,293.354,180.872,290.75,183.207,288.127z"/>
	</g>
</g>
<g id="veiculos" display="none">
	<g display="inline">
		<path fill-rule="evenodd" clip-rule="evenodd" d="M397.83,301.542c-0.042-16.252-5.489-29.594-18.153-39.2
			c-8.713-6.609-19.066-6.928-29.52-6.823c-15.699,0.158-36.399,21.088-35.061,48.167c-2.125,0-4.231,0.003-6.338-0.001
			c-37.155-0.063-74.312-0.188-111.468-0.121c-4.918,0.009-7.97-0.327-7.875-6.687c0.16-10.784-4.942-19.767-11.638-27.933
			c-10.573-12.899-33.935-17.687-48.256-9.673c-10.75,6.015-16.229,15.823-19.103,27.391c-2.209,8.89-2.259,9.001-10.524,5.482
			c-4.117-1.753-8.112-3.849-12.002-6.071c-4.648-2.654-7.261-6.157-6.358-12.23c0.746-5.021,0.202-10.323-0.382-15.431
			c-0.751-6.564,0.434-12.414,3.873-18.095c3.52-5.815,6.043-12.263,9.82-17.883c2.467-3.669,5.867-7.502,9.756-9.289
			c17.643-8.109,35.67-15.376,53.43-23.239c8.23-3.644,16.616-5.208,25.616-5.122c28.989,0.276,57.982,0.265,86.974,0.156
			c7.031-0.026,13.389,1.477,19.447,5.068c10.576,6.27,21.688,11.705,31.898,18.507c17.202,11.459,36.558,17.061,56.064,22.557
			c11.808,3.327,23.691,6.497,35.218,10.638c3.811,1.369,7.391,5.049,9.673,8.58c2.831,4.378,4.376,9.64,6.104,14.648
			c0.539,1.563,0.201,3.646-0.306,5.317c-2.36,7.771-5.003,15.456-7.382,23.222c-1.623,5.297-5.014,8.033-10.553,8.061
			C406.669,301.56,402.553,301.542,397.83,301.542z M311.666,228.371c-11.505-7.116-21.647-13.43-31.85-19.647
			c-1.231-0.751-2.778-1.375-4.185-1.387c-13.093-0.104-26.186-0.062-39.093-0.062c0,7.851,0,15.112,0,22.891
			C261.324,230.17,285.811,232.838,311.666,228.371z M216.755,206.967c-7.385,0-14.249,0.692-20.914-0.164
			c-9.842-1.264-16.562,3.161-22.403,10.068c-3.326,3.932-2.703,6.184,2.4,7.114c5.025,0.917,10.197,0.999,15.285,1.611
			c8.501,1.023,16.985,2.178,25.632,3.297C216.755,221.849,216.755,214.938,216.755,206.967z"/>
		<path fill-rule="evenodd" clip-rule="evenodd" d="M176.37,295.626c-0.061,16.888-12.601,29.803-28.941,29.807
			c-16.699,0.003-28.545-11.917-28.451-28.632c0.094-16.825,13.314-30.467,29.293-30.229
			C163.681,266.803,176.426,279.982,176.37,295.626z"/>
		<path fill-rule="evenodd" clip-rule="evenodd" d="M384.503,296.037c-0.13,17.078-12.754,29.582-29.699,29.416
			c-15.723-0.154-27.576-12.497-27.563-28.701c0.013-16.374,13.262-30.796,28.733-30.423
			C371.959,266.714,385.641,280.28,384.503,296.037z"/>
	</g>
</g>
<g id="aprimoramento" display="none">
	<g display="inline">
		<path fill-rule="evenodd" clip-rule="evenodd" d="M320.027,426.836c0-7.291-0.003-13.758,0.001-20.227
			c0.012-20.162,0.078-40.324-0.02-60.486c-0.014-2.848,0.709-4.316,3.498-5.572c11.357-5.113,15.735-15.209,12.64-28.156
			c-2.422-10.131-11.695-16.213-23.685-15.535c-10.966,0.621-18.938,8.467-20.955,19.859c-1.747,9.861,1.361,17.334,9.755,22.574
			c4.66,2.912,6.612,6.635,6.534,12.361c-0.316,23.158-0.142,46.324-0.148,69.486c0,1.473,0,2.947,0,4.893
			c-16.071,0-31.79,0-47.84,0c-0.157-0.668-0.492-1.434-0.494-2.197c-0.034-14.998-0.205-29.998,0.131-44.988
			c0.06-2.662,1.615-5.973,3.583-7.791c8.078-7.467,11.275-16.246,10.399-27.264c-0.777-9.771,0.098-19.66-0.253-29.48
			c-0.266-7.438,2.37-13.385,6.668-19.285c3.847-5.279,7.477-11.094,9.502-17.234c3.265-9.891-1.69-21.225-10.385-26.986
			c-8.722-5.781-18.815-5.926-27.221,1.412c-5.35,4.67-10.2,5.439-16.562,3.768c-7.203-1.891-14.637-2.893-21.86-4.719
			c-7.018-1.773-9.016-4.545-9.032-11.703c-0.065-28.328,0.039-56.656-0.107-84.982c-0.06-11.486-0.71-22.971-0.883-34.458
			c-0.109-7.262,2.075-13.568,9.315-16.726c7.753-3.379,15.321-2.735,22.151,2.363c4.314,3.22,5.672,8.025,5.767,13.239
			c0.431,23.808,0.84,47.616,1.319,71.425c0.077,3.822,0.508,7.637,0.703,11.459c0.166,3.25,2.175,4.334,5.006,4.148
			c2.791-0.184,4.745-1.525,4.728-4.668c-0.043-7.498-0.018-14.998-0.18-22.494c-0.522-24.133-1.163-48.264-1.63-72.399
			c-0.067-3.472,0.344-6.995,0.926-10.428c1.348-7.957,7.26-12.689,15.43-12.646c13.336,0.073,20.083,6.584,19.972,19.764
			c-0.271,32.152-0.709,64.303-1.062,96.453c-0.021,1.828-0.523,4.098,0.348,5.381c1.23,1.813,3.535,2.895,5.38,4.289
			c1.251-1.66,3.48-3.262,3.585-4.992c0.452-7.475,0.323-14.986,0.332-22.484c0.021-18.494-0.1-36.992,0.068-55.486
			c0.043-4.62,0.506-9.342,1.58-13.823c1.707-7.124,8.211-11.32,15.778-10.919c8.47,0.449,14.602,5.174,15.774,12.578
			c0.674,4.251,1.105,8.599,1.063,12.896c-0.24,24.313-0.682,48.623-0.972,72.934c-0.025,2.113-0.028,4.596,1.01,6.244
			c1.008,1.6,3.369,2.35,5.136,3.473c0.813-1.502,2.316-2.996,2.332-4.506c0.174-17.328,0.121-34.658,0.129-51.988
			c0.002-5.678,0.509-11.793,6.334-14.094c7.021-2.773,14.843-3.486,21.532,1.148c5.339,3.697,5.429,10.082,5.453,15.871
			c0.125,29.66,0.05,59.32,0.023,88.982c-0.013,14.664,0.302,29.34-0.198,43.988c-0.715,20.932-5.085,41.109-14.374,60.045
			c-0.73,1.488-1.31,3.189-2.432,4.324c-6.994,7.068-7.337,15.811-7.107,25c0.32,12.822,0.045,25.66-0.002,38.49
			c-0.03,8.189-1.741,9.857-10.012,9.867C331.188,426.84,325.876,426.836,320.027,426.836z"/>
		<path fill-rule="evenodd" clip-rule="evenodd" d="M247.678,426.75c-10.627,0-20.588,0.213-30.533-0.092
			c-4.898-0.148-5.988-3.99-5.992-8.189c-0.015-16.496-0.267-32.998,0.052-49.488c0.191-9.916-2.37-17.92-10.38-24.551
			c-7.928-6.564-14.754-14.443-22.244-21.557c-9.827-9.33-15.829-20.748-19.33-33.693c-6.102-22.563-12.35-45.086-18.434-67.652
			c-0.771-2.861-1.378-5.902-1.282-8.836c0.327-10.102,8.943-16.748,18.851-14.498c4.655,1.057,9.244,2.594,13.688,4.357
			c11.796,4.68,15.167,14.705,16.566,26.18c0.963,7.891,2.729,15.684,4.089,23.527c0.6,3.457,1.925,6.08,5.645,7.311
			c9.432,3.117,18.72,6.672,28.173,9.723c8.258,2.664,14.612,6.66,18.22,15.387c2.003,4.844,6.755,8.928,11.076,12.324
			c3.765,2.961,5.883,5.875,5.824,10.715c-0.167,13.828,0.128,27.664-0.274,41.484c-0.088,3.012-1.59,6.688-3.697,8.809
			c-7.808,7.857-10.852,16.822-10.199,27.939C248.274,399.225,247.678,412.581,247.678,426.75z"/>
		<path fill-rule="evenodd" clip-rule="evenodd" d="M277.813,272.153c-0.046,7.729-5.304,13.803-11.956,13.813
			c-6.98,0.01-12.728-6.344-12.563-13.893c0.155-7.07,5.831-12.777,12.581-12.646C272.362,259.551,277.852,265.405,277.813,272.153z
			"/>
		<path fill-rule="evenodd" clip-rule="evenodd" d="M324.664,320.049c-0.275,5.844-5.696,11.039-11.059,10.602
			c-5.92-0.484-10.686-5.73-10.342-11.383c0.363-5.973,5.537-10.176,12.087-9.82C321.235,309.768,324.95,313.997,324.664,320.049z"
			/>
	</g>
</g>
<g id="armas_x5F_projecao" display="none">
	<path display="inline" fill-rule="evenodd" clip-rule="evenodd" d="M495.87,122.027c-0.592-8.701-3.354-11.058-11.889-11.137
		c-5.986-0.056-11.975-0.012-18.006-0.012c0-6.594,0.078-12.044-0.02-17.49c-0.111-6.211-3.629-10.188-9.514-10.413
		c-6.43-0.244-13.115,0.227-19.326,1.809c-7.84,1.996-11.929,8.422-12.346,16.53c-0.142,2.785-0.382,5.564-0.592,8.558
		c-93.755,0-186.997,0-281.363,0c0-9.204,0-17.977,0-27.154c-15.466,0-29.816,0.217-44.155-0.09
		c-7.417-0.16-13.114,2.177-15.351,9.391c-4.664,15.051-13.996,21.862-29.871,18.346c-11.808,32.989-10.499,55.567,0,100.781
		c8.269,3.214,17.013,4.603,22.537,13.643c3.631,5.942,4.83,11.388,2.927,17.062c-8.169,24.339-17.204,40.843-21.537,66.15
		c-6.331,36.982-43.192,81.584-43.192,119.104c17.659,0.119,74.584,0.279,92.242,0.348c17.225,0.066,34.458,0.362,51.672-0.054
		c12.659-0.304,17.304-9.156,11.069-19.906c-1.092-1.883-2.119-3.815-3.354-5.602c-4.335-6.268-4.512-12.746-2.037-19.858
		c7.061-20.298,14.04-40.633,20.523-61.119c1.786-5.643,4.598-7.501,10.22-7.458c24.426,0.184,48.872-0.473,73.277,0.257
		c16.704,0.5,31.463-10.083,36.946-26.536c3.707-11.121,7.467-22.24,10.596-33.529c1.479-5.331,3.873-7.042,9.448-7.004
		c37.949,0.266,75.9,0.079,113.85,0.182c18.12,0.049,28.802-13.244,27.53-27.725c-0.752-8.558-0.137-17.236-0.137-26.089
		c6.215,0,11.443,0.006,16.67-0.001c11.162-0.019,13.451-2.865,13.152-14.194c-0.338-12.816,0-25.651,0.043-38.479
		C495.907,134.231,496.284,128.102,495.87,122.027z M119.006,152.362c0,2.976-2.412,5.389-5.389,5.389H93.984
		c-2.977,0-5.389-2.413-5.389-5.389v-21.943c0-2.976,2.412-5.389,5.389-5.389h19.633c2.977,0,5.389,2.413,5.389,5.389V152.362z
		 M143.759,171.821c-5.061,0-9.162-4.102-9.162-9.162v-0.327c0-5.061,4.102-9.162,9.162-9.162h96.162
		c5.061,0,9.162,4.102,9.162,9.162v0.327c0,5.061-4.102,9.162-9.162,9.162H143.759z M273.746,275.65
		c-0.349,1.028-2.822,1.886-4.313,1.894c-23.042,0.117-46.082,0.081-69.866,0.081c3.101-9.688,5.771-18.588,8.907-27.32
		c0.562-1.563,3.044-3.452,4.654-3.469c22.808-0.226,45.616-0.153,69.694-0.153C279.671,256.931,276.894,266.354,273.746,275.65z
		 M424.59,209.093c-30.855,0-61.838,0-93.925,0c1.562-4.637,2.809-8.99,4.558-13.133c0.534-1.266,2.443-2.771,3.729-2.779
		c28.435-0.158,56.871-0.12,85.638-0.12C424.59,198.635,424.59,203.577,424.59,209.093z"/>
</g>
<g id="arsenal" display="none">
	<g display="inline">
		<path fill-rule="evenodd" clip-rule="evenodd" d="M482.333,283.464h-42.08v11.372c0,8.806-7.139,15.944-15.945,15.944H85.928
			c-8.806,0-15.945-7.139-15.945-15.944v-11.372H27.904c-7.339,0-13.287,5.948-13.287,13.287v177.166
			c0,7.339,5.948,13.287,13.287,13.287h454.429c7.34,0,13.289-5.948,13.289-13.287V296.751
			C495.623,289.413,489.673,283.464,482.333,283.464z"/>
		<g>
			<path fill-rule="evenodd" clip-rule="evenodd" d="M252.252,122.932v-0.156c0-2.405-1.949-4.354-4.354-4.354h-45.701
				c-2.406,0-4.355,1.949-4.355,4.354v0.156c0,2.404,1.949,4.354,4.355,4.354h45.701
				C250.303,127.286,252.252,125.336,252.252,122.932z"/>
			<path fill-rule="evenodd" clip-rule="evenodd" d="M488.091,98.957h-47.838V59.977c0-8.806-7.139-15.945-15.945-15.945H85.928
				c-8.806,0-15.945,7.14-15.945,15.945v38.979H22.146c-4.404,0-7.972,3.568-7.972,7.972v46.944c0,4.404,3.568,7.973,7.972,7.973
				h47.837v101.872c0,8.806,7.139,15.944,15.945,15.944h338.38c8.807,0,15.945-7.139,15.945-15.944V161.845h47.838
				c4.402,0,7.971-3.568,7.971-7.973v-46.944C496.062,102.525,492.494,98.957,488.091,98.957z M369.544,112.323
				c-0.02,6.096-0.182,12.196-0.02,18.287c0.143,5.385-0.947,6.737-6.252,6.746c-2.484,0.003-4.967,0-7.922,0
				c0,4.207-0.293,8.332,0.066,12.398c0.604,6.883-4.473,13.199-13.086,13.176c-18.033-0.047-36.07,0.042-54.107-0.086
				c-2.648-0.018-3.789,0.795-4.488,3.33c-1.488,5.364-3.275,10.647-5.037,15.935c-2.605,7.819-9.619,12.849-17.557,12.609
				c-11.601-0.345-23.218-0.033-34.827-0.122c-2.672-0.021-4.008,0.864-4.857,3.546c-3.082,9.736-6.398,19.401-9.754,29.048
				c-1.176,3.379-1.093,6.459,0.968,9.436c0.587,0.852,1.076,1.768,1.595,2.663c2.962,5.109,0.755,9.316-5.261,9.462
				c-8.181,0.197-16.372,0.057-24.558,0.023c-8.392-0.031-35.445-0.106-43.838-0.164c0-17.831,17.519-39.028,20.526-56.605
				c2.06-12.026,6.354-19.872,10.236-31.438c0.904-2.696,0.334-5.284-1.391-8.107c-2.625-4.298-6.78-4.957-10.71-6.484
				c-4.989-21.487-5.612-32.218,0-47.896c7.544,1.672,11.979-1.566,14.197-8.719c1.063-3.428,3.77-4.539,7.295-4.462
				c6.815,0.146,13.635,0.041,20.984,0.041c0,4.363,0,8.532,0,12.906c44.848,0,89.16,0,133.72,0
				c0.098-1.422,0.213-2.743,0.279-4.066c0.197-3.854,2.141-6.907,5.867-7.857c2.951-0.751,6.129-0.975,9.186-0.858
				c2.797,0.106,4.469,1.997,4.521,4.948c0.045,2.589,0.01,5.179,0.01,8.313c2.865,0,5.711-0.021,8.557,0.006
				c4.055,0.037,5.369,1.157,5.648,5.293C369.734,106.508,369.556,109.421,369.544,112.323z"/>
			<path fill-rule="evenodd" clip-rule="evenodd" d="M187.872,105.048h-9.331c-1.414,0-2.56,1.146-2.56,2.561v10.429
				c0,1.414,1.146,2.562,2.56,2.562h9.331c1.415,0,2.562-1.147,2.562-2.562v-10.429
				C190.433,106.194,189.286,105.048,187.872,105.048z"/>
			<path fill-rule="evenodd" clip-rule="evenodd" d="M235.164,162.935c-0.764,0.008-1.944,0.906-2.211,1.65
				c-1.491,4.15-2.76,8.38-4.233,12.984c11.304,0,22.252,0.016,33.204-0.039c0.707-0.005,1.883-0.413,2.049-0.9
				c1.498-4.417,2.816-8.896,4.314-13.768C256.843,162.863,246.004,162.829,235.164,162.935z"/>
			<path fill-rule="evenodd" clip-rule="evenodd" d="M293.189,138.758c-0.83,1.969-1.422,4.037-2.164,6.242
				c15.25,0,29.975,0,44.637,0c0-2.623,0-4.972,0-7.62c-13.67,0-27.184-0.018-40.699,0.058
				C294.353,137.442,293.443,138.157,293.189,138.758z"/>
		</g>
	</g>
</g>
<g id="aliados" display="none">
	<g display="inline">
		<path fill-rule="evenodd" clip-rule="evenodd" d="M136.122,484.918c-17.098,0-34.2,0.021-51.3-0.008
			c-18.412-0.028-27.469-8.519-27.839-27.074c-0.381-19.179-0.323-38.375,0.079-57.555c0.156-7.446-1.115-10.815-9.926-11.206
			c-22.141-0.982-32.921-13.183-32.95-35.348c-0.04-29.612,0.503-59.23-0.005-88.838c-0.659-38.434,39.131-86.141,81.885-82.201
			c27.295,2.514,55.168,2.307,82.502,0.002c39.968-3.373,80.144,43.885,79.662,79.169c-0.428,31.273,0.025,62.561-0.127,93.841
			c-0.101,20.29-10.082,31.206-30.318,31.409c-10.522,0.107-12.383,4.407-12.143,13.588c0.525,20.004,0.234,40.035,0.039,60.054
			c-0.164,16.988-7.359,23.967-24.503,24.05c-18.351,0.087-36.703,0.019-55.056,0.019
			C136.122,484.853,136.122,484.884,136.122,484.918z"/>
		<path fill-rule="evenodd" clip-rule="evenodd" d="M372.223,489.806c-17.101,0-34.201,0.002-51.302,0
			c-16.759-0.005-23.991-7.122-24.081-24.283c-0.116-22.523,0.085-45.045,0.075-67.567c0-3.953,1.223-9.069-5.54-8.638
			c-10.392,0.663-9.448-4.858-6.503-11.579c3.745-8.551,4.749-17.513,4.679-26.788c-0.182-24.605-0.575-49.23,0.111-73.816
			c0.582-20.954-3.206-40.586-14.267-58.4c-4.492-7.237-2.725-12.162,3.01-17.238c12.975-11.49,28.156-17.861,45.334-18.108
			c32.107-0.46,64.232-0.545,96.34-0.059c36.743,0.559,75.373,39.772,75.769,76.642c0.345,32.11,0.198,64.229,0.087,96.342
			c-0.067,20.116-12.322,33.122-32.447,32.925c-9.609-0.092-10.771,3.908-10.689,11.82c0.216,20.846,0.356,41.723-0.592,62.539
			c-0.893,19.579-8.86,26.187-28.685,26.162c-17.101-0.023-34.201-0.004-51.299-0.004
			C372.223,489.772,372.223,489.789,372.223,489.806z"/>
		<path fill-rule="evenodd" clip-rule="evenodd" d="M68.714,88.453c0.561-40.487,30.087-68.573,71.431-67.943
			c37.85,0.576,68.614,32.999,67.938,71.607c-0.669,38.313-33.593,68.109-74.512,67.426
			C96.993,158.936,68.177,127.351,68.714,88.453z"/>
		<path fill-rule="evenodd" clip-rule="evenodd" d="M445.913,90.782c-0.313,39.022-31.525,68.996-71.655,68.813
			c-38.952-0.181-67.538-30.34-67.254-70.96c0.271-39.096,31.254-68.476,71.921-68.203
			C416.882,20.688,446.223,51.501,445.913,90.782z"/>
	</g>
</g>
<g id="recursos" display="none">
	<g display="inline">
		<path fill-rule="evenodd" clip-rule="evenodd" d="M263.27,287.964c0.011-31.019-1.143-62.093,0.316-93.047
			c1.619-34.586-16.877-54.364-45.363-67.771c-7.043-3.316-12.888-5.647-12.359-15.121c0.248-4.449-2.058-9.119-5.121-12.963
			c-14.327-17.969-13.835-37.757-4.176-56.838c9.956-19.668,27.468-28.405,49.748-28.039c25.416,0.426,50.847-0.218,76.257,0.281
			c33.029,0.642,57.587,30.989,50.814,61.861c-1.348,6.133-4.691,10.925-8.216,15.838c-10.657,14.858-9.64,25.668,4.873,36.504
			c10.08,7.534,4.416,17.289,5.459,25.994c0.957,8.033-6.732,7.366-11.605,9.213c-34.819,13.191-60.119,36.185-58.409,82.323
			c1.8,48.619,0.226,97.359,0.691,146.039c0.085,9.148-2.637,11.534-11.619,11.509c-31.306-0.09-31.306,0.256-31.301-30.473
			C263.265,344.84,263.265,316.402,263.27,287.964z"/>
		<path fill-rule="evenodd" clip-rule="evenodd" d="M233.739,228.458c-0.008,11.199-0.813,22.473,0.21,33.575
			c1.115,12.071-4.236,19.445-13.881,25.145c-30.395,17.961-63.61,22.839-98.016,19.726c-22.207-2.01-43.988-6.827-63.61-18.653
			c-11.562-6.968-18.405-15.555-17.392-30.197c1.654-23.985-1.895-48.142,2.078-72.138c1.519-9.179,6.264-15.658,13.432-21.034
			c16.327-12.251,35.421-17.344,55.016-19.625c33.12-3.853,65.979-3.138,97.054,11.657c17.179,8.179,27.012,20.395,25.27,40.544
			C233.017,207.717,233.746,218.117,233.739,228.458z M138.587,186.525c-14.766-0.877-29.601,1.196-43.955,6.131
			c-3.893,1.338-8.532,2.968-8.705,8.354c-0.178,5.567,4.519,7.125,8.444,8.421c29.465,9.732,58.966,9.758,88.311-0.559
			c3.9-1.369,8.737-2.549,8.402-8.267c-0.321-5.404-5.161-6.86-8.963-8.151C168.19,187.716,153.764,185.744,138.587,186.525z"/>
		<path fill-rule="evenodd" clip-rule="evenodd" d="M335.285,369.944c0-22.382,0.126-44.765-0.064-67.142
			c-0.075-8.331,1.469-10.998,10.07-6.065c36.604,21.004,73.554,23.044,110.979,1.298c12.061-7.008,12.702-6.146,12.728,8.598
			c0.05,39.17,0.03,78.341,0.075,117.506c0.035,33.501-13.224,52.014-46.123,60.149c-27.064,6.687-53.026,3.789-73.97-17.38
			c-8.768-8.868-13.5-19.585-13.364-32.413c0.23-21.515,0.065-43.035,0.065-64.551C335.55,369.944,335.416,369.944,335.285,369.944z
			"/>
		<path fill-rule="evenodd" clip-rule="evenodd" d="M233.673,309.93c0,27.21,0.123,53.337-0.075,79.454
			c-0.06,8.016-6.366,11.654-12.382,15.089c-33.02,18.843-68.932,22.177-105.786,18.692c-20.547-1.95-40.368-7.219-58.525-17.79
			c-10.582-6.161-16.181-14.292-15.823-27.08c0.579-20.628,0.135-41.291,0.067-61.934c-0.02-5.784,0.276-9.364,7.768-5.168
			C109.741,345.256,170.597,342.785,233.673,309.93z"/>
		<path fill-rule="evenodd" clip-rule="evenodd" d="M405.099,189.959c15.179-0.915,30.308,3.128,43.642,12.818
			c27.175,19.735,27.39,50.968,0.651,71.076c-23.996,18.041-69.332,18.372-93.579,0.677c-27.075-19.752-25.866-54.719,2.701-72.893
			C372.275,192.882,387.499,189.012,405.099,189.959z"/>
		<path fill-rule="evenodd" clip-rule="evenodd" d="M44.754,427.066c62.43,31.816,124.897,34.999,187.385,0.296
			c4.168,33.711,4.916,42.729-31.38,56.71c-39.747,15.314-81.166,15.951-121.136,1.96C40.165,472.226,40.681,461.278,44.754,427.066
			z"/>
	</g>
</g>
<g id="aceleracao" display="none">
	<g display="inline">
		<path fill-rule="evenodd" clip-rule="evenodd" d="M287.744,466.83c-1.032,3.772-2.98,7.017-2.53,9.884
			c2.523,16.09-6.754,16.979-18.947,16.307c-13.62-0.754-27.313-0.12-40.973-0.176c-20.615-0.082-31.049-12.119-28.268-32.476
			c3.224-23.588,10.261-45.873,23.718-65.67c4.441-6.533,6.029-13.075,5.696-20.805c-0.697-16.113-0.504-32.264-1.218-48.38
			c-0.325-7.337,1.799-10.597,9.629-10.414c38.688,0.915,55.548-28.487,55.706-60.241c0.167-32.438-26.284-57.606-58.727-57.809
			c-14.267-0.087-17.194-3.283-15.024-17.874c2.06-13.853,4.547-27.65,7.234-41.398c1.721-8.806-0.259-11.31-9.824-9.355
			c-16.495,3.371-33.192,6.435-50.129,6.615c-36.671,0.393-60.052-22.421-61.856-59.438c-0.821-16.852,2.698-32.665,8.714-48.264
			c3.536-9.168,8.452-13.149,19.147-13.018c50.91,0.634,101.854,1.1,152.745-0.129c31.672-0.767,54.917,24.869,56.827,54.892
			c1.394,21.867-4.912,42.477-8.772,63.483c-6.559,35.696-10.271,71.724-13.922,107.789c-3.566,35.255-7.554,70.474-11.725,105.662
			c-1.262,10.662-1.589,18.702,10.337,25.375c14.315,8.006,25.697,20.82,36.049,33.772c20.104,25.158,46.21,37.481,78.057,39.495
			c22.375,1.41,31.031,7.733,34.978,23.151c3.184,12.423-4.238,26.81-16.698,26.644c-38.652-0.508-77.762,6.271-115.881-4.693
			C316.227,485.199,302.437,475.801,287.744,466.83z"/>
		<path fill-rule="evenodd" clip-rule="evenodd" d="M230.54,220.636c23.588,0.018,37.021,13.426,36.87,36.795
			c-0.149,22.28-14.485,36.2-36.812,35.74c-21.866-0.445-34.297-13.737-34.289-36.653
			C196.32,232.904,208.038,220.618,230.54,220.636z"/>
		<path fill-rule="evenodd" clip-rule="evenodd" d="M110.289,265.093c15.279,0,30.561,0.142,45.837-0.051
			c10.106-0.125,15.985,5.237,16.433,14.565c0.461,9.591-4.25,16.783-15.194,17.017c-32.18,0.696-64.363,1.512-96.548,1.679
			c-9.933,0.053-16.163-5.296-15.978-16.29c0.176-10.424,5.798-16.27,17.136-16.443c16.102-0.248,32.209-0.063,48.314-0.063
			C110.289,265.368,110.289,265.233,110.289,265.093z"/>
		<path fill-rule="evenodd" clip-rule="evenodd" d="M143.787,327.546c12.809,0,25.618,0.041,38.427-0.012
			c10.436-0.041,16.519,4.447,16.151,15.502c-0.351,10.525-5.873,15.476-16.476,15.707c-24.348,0.534-48.683,1.565-73.029,2.141
			c-12.635,0.296-20.035-5.875-20.394-16.304c-0.379-10.982,6.185-16.814,19.373-16.944c11.983-0.118,23.966-0.024,35.949-0.024
			C143.787,327.592,143.787,327.566,143.787,327.546z"/>
		<path fill-rule="evenodd" clip-rule="evenodd" d="M132.364,198.262c11.587,0,23.173-0.037,34.762,0.011
			c9.914,0.042,15.459,4.998,15.809,14.977c0.372,10.622-5.131,16.075-15.662,16.41c-22.739,0.724-45.477,1.529-68.222,1.985
			c-10.44,0.208-18.944-7.75-19.026-17c-0.093-10.29,6.56-16.098,18.82-16.208c11.173-0.1,22.346-0.022,33.52-0.022
			C132.364,198.364,132.364,198.313,132.364,198.262z"/>
	</g>
</g>
<g id="mutacao" display="none">
	<path display="inline" fill-rule="evenodd" clip-rule="evenodd" d="M215.393,397.249c1.734,42.757-15.522,71.834-50.392,88.862
		c-32.7,15.97-65.345,12.583-94.745-9.173c-32.762-24.241-44.222-71.705-27.674-109.448c17.198-39.228,58.089-61.836,100.049-53.758
		c17.582,3.387,30.393-2.912,39.914-15.759c29.9-40.355,3.488-87.327-31.982-92.523c-22.484-3.295-43.772-10.049-60.598-27.313
		C62.8,150.26,53.957,109.523,68.619,74.568c15.253-36.364,50.227-60.92,88.475-60.387c61.519,0.861,103.033,54.626,95.746,107.861
		c-1.668,12.196-5.834,24.292-1.8,37.356c6.146,19.9,20.346,30.302,39.001,34.366c17.925,3.905,34.869,0.823,46.07-16.368
		c1.178-1.808,2.585-3.648,4.296-4.908c13.923-10.206,13.821-23.169,9.495-38.4c-8.17-28.793,3.311-58.745,27.263-72.67
		c24.297-14.126,48.756-14.649,72.221,2.051c22.397,15.941,28.674,38.865,24.642,64.571c-3.985,25.439-25.022,44.263-52.062,50.054
		c-6.048,1.295-12.491,3.669-17.945,1.747c-18.513-6.543-25.535,8.353-34.914,17.998c-9.003,9.265-12.05,20.875-8.195,33.795
		c5.377,18.026,7.835,36.229,6.783,55.276c-1.573,28.615,8.622,38.921,37.601,38.459c21.256-0.341,38.438,6.555,50.859,23.715
		c13.725,18.958,14.197,43.788,1.965,62.527c-12.304,18.852-38.027,30.716-58.541,27.001c-25.749-4.659-44.405-21.189-49.198-44.133
		c-1.422-6.773-1.985-13.761-2.498-20.687c-1.407-19.075-15.904-28.436-32.392-19.601c-18.341,9.828-36.925,11.014-56.753,6.35
		c-33.396-7.857-43.805,0.727-43.348,34.818C215.414,397.109,215.393,398.855,215.393,397.249z"/>
</g>
<g id="informantes" display="none">
	<g display="inline">
		<path fill-rule="evenodd" clip-rule="evenodd" d="M252.786,14.173c13.348,0.956,28.249-1.288,42.883,2.836
			c8.582,2.418,18.935,4.091,23.684,10.777c14.398,20.275,42.623,22.29,55.541,43.161c14.679,23.717,17.367,50.376,14.969,77.688
			c-0.77,8.778-1.752,17.542-2.851,26.289c-0.344,2.747,0.252,4.884,2.665,6.06c15.138,7.38,14.422,21.148,13.042,34.387
			c-1.551,14.891-7.111,28.684-15.616,41.11c-2.507,3.663-5.659,7.767-9.997,8.288c-12.712,1.534-15.965,11.379-20.31,20.806
			c-10.226,22.185-24.034,41.894-43.755,56.564c-39.826,29.636-95.201,22.697-130.483-15.354
			c-13.247-14.291-23.664-30.239-31.574-47.932c-2.839-6.352-6.218-10.408-14.107-12.698c-23.094-6.704-37.292-65.985-19.816-81.978
			c5.956-5.452,6.48-9.572,5.819-17.177c-2.208-25.475-5.622-50.999,0.823-76.625c10.049-39.962,40.141-67.354,80.905-73.471
			C220.205,14.566,235.767,14.732,252.786,14.173z M176.79,148.984c-7.155-1.968-12.916,0.221-14.178,7.371
			c-1.59,8.994-3.806,18.141-2.214,27.434c1.288,7.545,3.899,14.578,13.197,14.262c10.175-0.344,6.202-8.887,6.348-13.847
			c0.322-11.054,2.985-16.532,16.107-15.348c35.356,3.196,68.28-6.194,99.065-23.202c20.224-11.17,21.87-11.127,35.449,8.186
			c2.49,3.544,3.936,7.809,5.975,11.681c1.763,3.346,4.184,6.452,8.369,5.466c4.392-1.031,6.256-4.491,6.333-9.05
			c0.086-5.445-2.002-10.121-4.507-14.742c-6.83-12.607-16.896-22.276-27.855-31.217c-6.704-5.472-12.464-7.037-18.948,0.801
			c-3.186,3.848-8.199,6.366-12.707,8.904C252.818,145.039,216.542,155.619,176.79,148.984z"/>
		<path fill-rule="evenodd" clip-rule="evenodd" d="M126.129,394.639c-9.064-16.117-17.493-31.135-25.957-46.129
			c-4.453-7.89-2.457-13.806,5.456-17.823c8.913-4.525,18.221-8.384,26.75-13.537c8.226-4.977,12.835-3.831,18.155,4.578
			c20.227,31.967,48.5,53.214,86.331,59.689c49.149,8.411,88.117-8.959,117.369-48.691c15.415-20.938,15.127-21.151,38.528-9.308
			c3.213,1.628,6.466,3.19,9.602,4.956c11.346,6.389,13.042,11.196,6.861,22.257c-6.644,11.887-13.334,23.824-21.051,35.014
			c-5.248,7.607-4.205,8.61,4.73,10.481c31.176,6.528,61.148,16.212,83.757,40.766c10.354,11.244,14.082,25.036,14.984,39.576
			c0.76,12.256-6.568,19.36-19.287,19.393c-58.303,0.152-116.607-0.076-174.907,0.201c-9.235,0.045-12.72-3.729-11.36-12.27
			c2.385-15.001,5.238-29.93,7.688-44.919c0.984-6.036,6.992-13.807-3.107-17.104c-8.365-2.731-20.529,5.051-22.377,13.604
			c-2.869,13.271-5.549,26.614-7.509,40.042c-2.85,19.54-3.567,20.568-22.97,20.578c-66.343,0.025-132.688,0.03-199.031-0.019
			c-16.269-0.012-21.317-5.636-20.066-22.223c1.956-25.94,16-44.183,37.993-56.217C78.151,405.805,101.125,397.8,126.129,394.639z"
			/>
	</g>
</g>
<g id="brutalidade" display="none">
	<g display="inline">
		<path fill-rule="evenodd" clip-rule="evenodd" d="M430.379,185.925c0,23.546-0.268,46.982,0.072,70.407
			c0.377,26.389-6.919,50.602-20.917,72.574c-11.553,18.13-17.613,36.784-16.212,58.771c1.73,27.174,0.838,54.513,1.025,81.78
			c0.124,18.434-5.927,24.7-24.108,24.728c-42.51,0.068-85.019-0.136-127.525,0.123c-14.795,0.09-29.581,1.716-44.371,1.753
			c-19.322,0.053-29.322-10.723-28.969-30.16c0.528-29.263,0.98-58.533,1.777-87.789c0.383-14.083-4.569-25.298-14.564-35.297
			c-19.546-19.557-40.163-38.095-57.943-59.371c-12.759-15.27-19.877-32.372-18.758-52.818c1.509-27.581-1.629-55.327,2.031-82.825
			c2.104-15.803,10.446-22.855,26.694-23.064c30.873-0.398,61.753-0.386,92.632-0.28c13.297,0.044,23.026,6.724,26.184,17.115
			c4.063,13.369-1.067,29.179-11.469,36.684c-11.168,8.055-23.862,8.013-36.755,7.982c-18.086-0.042-18.076,0.404-16.757,18.069
			c0.435,5.851,2.712,7.524,8.125,7.397c9.619-0.233,19.25-0.118,28.873,0.042c31.198,0.522,61.578,30.954,62.445,62.477
			c0.067,2.402,0.098,4.812,0.018,7.213c-0.212,6.432,0.804,13.33,8.401,13.332c6.912,0.003,9.289-6.011,9.445-12.897
			c0.557-24.861-7.561-46.312-24.735-64.219c-4.382-4.567-9.502-8.427-15.174-13.395c10.663-5.774,19.19-10.208,26.197-16.76
			c3.616-3.381,6.045-1.806,9.311,0.448c21.149,14.595,42.944,15.783,65.187,2.489c3.559-2.127,6.18-3.442,10.641-0.481
			c27.617,18.334,49.81,17.019,75.112-3.666C426.757,185.905,427.724,186.133,430.379,185.925z"/>
		<path fill-rule="evenodd" clip-rule="evenodd" d="M340.988,101.471c-0.004,16.819,0.142,33.637-0.045,50.454
			c-0.188,16.823-13.551,28.671-31.745,28.492c-16.693-0.162-29.138-12.123-29.089-28.539c0.104-34.404,0.308-68.811,0.813-103.21
			c0.265-17.737,10.64-27.634,27.733-27.413c18.246,0.237,31.905,12.035,32.255,28.563
			C341.275,67.03,340.991,84.253,340.988,101.471z"/>
		<path fill-rule="evenodd" clip-rule="evenodd" d="M356.65,109.513c0-15.645-0.112-31.29,0.035-46.934
			c0.13-13.679,8.092-22.871,21.35-24.515c23.875-2.961,44.685,9.946,42.882,36.606c-1.702,25.158-0.512,50.521-0.363,75.79
			c0.072,12.24-3.999,22.239-15.249,27.798c-12.029,5.944-24.788,7.117-36.829,0.318c-8.159-4.609-11.97-12.417-11.834-22.132
			c0.222-15.642,0.058-31.289,0.058-46.932C356.683,109.513,356.667,109.513,356.65,109.513z"/>
		<path fill-rule="evenodd" clip-rule="evenodd" d="M239.011,178.98c4.314-11.27,7.725-21.5,6.498-32.385
			c-2.106-18.672-13.567-30.653-30.215-36.901c-8.984-3.373-10.99-8.153-10.66-16.735c0.616-15.99,0.228-32.018,0.376-48.028
			c0.162-17.723,13.483-30.793,31.193-30.757c14.764,0.03,28.062,13.659,28.213,30.15c0.265,28.415-0.149,56.836-0.281,85.255
			c-0.035,7.205,0.192,14.424-0.182,21.612C263.184,165.935,255.01,175.379,239.011,178.98z"/>
		<path fill-rule="evenodd" clip-rule="evenodd" d="M189.114,69.848c0,9.204-0.18,18.413,0.062,27.61
			c0.176,6.748-2.823,9.168-9.405,9.043c-13.604-0.259-27.213-0.036-40.821-0.009c-9.457,0.02-13.669-4.515-13.441-14.129
			c0.363-15.201-0.091-30.417,0.172-45.621c0.315-18.166,15.218-31.808,33.828-31.379c18.468,0.426,29.531,12.167,29.749,31.672
			c0.085,7.603,0.015,15.208,0.015,22.812C189.218,69.848,189.167,69.848,189.114,69.848z"/>
	</g>
</g>
<g id="rigidez" display="none">
	<g display="inline">
		<path fill-rule="evenodd" clip-rule="evenodd" d="M469.322,255.898c0.019,30.477-0.552,60.967,0.215,91.427
			c0.522,20.823-8.226,35.35-25.707,45.467c-56.129,32.506-112.248,65.023-168.387,97.508c-12.753,7.38-25.633,7.854-38.557,0.361
			c-58.251-33.777-116.648-67.309-174.648-101.512c-14.241-8.396-21.631-21.743-21.561-39.058
			c0.248-62.191,0.231-124.383,0.098-186.572c-0.043-19.76,7.285-34.146,25.201-44.315c57.479-32.63,114.559-65.969,171.5-99.534
			c11.559-6.813,21.889-7.519,33.406-0.86c59.688,34.52,119.512,68.82,179.215,103.318c13.788,7.967,19.321,20.526,19.254,36.159
			C469.202,190.823,469.302,223.362,469.322,255.898z M366.875,282.506c0.015,0,0.024,0,0.039,0c0-19.338-0.01-38.676,0.005-58.014
			c0.009-8.271-2.405-14.279-11.978-15.464c-17.668-2.189-17.645-2.386-17.692-19.901c-0.01-4.524,0.226-9.069-0.101-13.572
			c-1.571-21.769-8.59-40.875-27.23-54.057c-22.564-15.96-47.908-21.767-74.75-17.012c-29.744,5.27-51.036,21.671-58.521,52.464
			c-3.147,12.947-1.642,26.223-1.274,39.299c0.265,9.548-2.366,13.093-12.443,12.792c-15.019-0.448-17.679,2.264-17.919,16.875
			c-0.579,35.361-0.596,70.734-0.861,106.102c-0.119,15.994,6.564,27.992,19.542,37.596c24.965,18.476,53.269,30.553,80.923,43.91
			c4.893,2.364,10.161,2.506,15.521,0.313c32.343-13.225,63.593-28.521,92.112-48.89c10.324-7.381,15.393-17.312,14.809-30.602
			C366.3,317.096,366.875,299.79,366.875,282.506z"/>
		<path fill-rule="evenodd" clip-rule="evenodd" d="M253.777,209.001c-13.563,0-27.13-0.185-40.685,0.077
			c-6.862,0.136-9.635-2.503-9.257-9.464c0.425-7.788-0.058-15.618,0.094-23.422c0.488-24.989,16.271-42.37,42.043-46.452
			c25.364-4.017,52.02,10.133,58.669,32.048c4.106,13.536,1.375,27.717,1.51,41.605c0.058,6.302-5.433,5.064-9.228,5.112
			c-14.382,0.168-28.769,0.067-43.147,0.067C253.777,208.716,253.777,208.86,253.777,209.001z"/>
		<path fill-rule="evenodd" clip-rule="evenodd" d="M235.754,317.146c-0.026-10.563,0.749-20.701-6.085-30.604
			c-5.754-8.341-1.308-27.372,5.111-33.487c7.917-7.543,25.48-10.229,35.973-5.251c14.698,6.971,18.325,19.448,11.637,35.787
			c-6.353,15.511-5.768,30.046-6.544,45.29c-0.724,14.253-6.324,20.965-18.23,21.664c-14.654,0.86-21.499-5.315-21.844-19.81
			C235.662,326.206,235.754,321.676,235.754,317.146z"/>
	</g>
</g>
<g id="inducao" display="none">
	<g display="inline">
		<path fill-rule="evenodd" clip-rule="evenodd" d="M203.823,475.995c-55.545,0-111.089,0.05-166.634-0.024
			c-20.67-0.029-24.795-5.532-22.414-26.15c2.321-20.068,13.083-34.331,28.826-45.509c16.141-11.46,34.404-18.77,52.696-25.952
			c20.948-8.229,30.153-21.467,30.716-44.072c0.063-2.507-0.13-5.051,0.223-7.518c2.917-20.464-1.181-36.087-20.178-49.574
			c-24.111-17.12-33.989-54.491-10.525-83.798c3.666-4.581,4.15-9.167,3.608-14.917c-3.852-40.873,0.833-79.626,32.466-109.82
			c30.546-29.154,68.111-38.039,108.95-33.487c34.537,3.856,62.597,20.265,84.44,47.641c16.173,20.266,21.404,43.884,23.291,68.765
			c0.375,4.977,0.337,10.083-0.331,15.021c-2.06,15.231-0.803,28.962,12.942,39.153c3.845,2.853,6.487,7.618,9.014,11.903
			c10.027,16.992,3.833,33.176-15.092,38.482c-4.708,1.319-7.088,1.989-5.139,7.38c1.522,4.226-0.516,10.635,7.829,9.53
			c10.832-1.432,20.877-1.692,26.101-15.033c5.969-15.25,24.633-19.75,39.17-11.723c13.237,7.311,17.299,22.708,9.763,37.005
			c-8.207,15.562-24.439,22.704-37.334,13.115c-16.813-12.503-31.979-2.003-47.849-0.74c-4.339,0.346-3.141,4.256-2.979,6.799
			c0.463,7.115,1.367,14.199,2.041,21.302c1.022,10.823-4.267,17.646-13.896,21.609c-11.762,4.839-23.733,7.259-36.571,4.667
			c-10.882-2.197-20.398,3.042-23.536,11.979c-2.748,7.824,0.829,13.049,8.854,14.293c32.543,5.038,63.155,15.34,88.863,36.586
			c13.695,11.323,21.782,26.246,21.361,44.822c-0.321,14.181-4.239,18.368-18.822,18.395c-56.616,0.104-113.238,0.045-169.855,0.045
			C203.823,476.112,203.823,476.053,203.823,475.995z M143.106,239.865c-0.139,16.673,13.159,30.74,29.101,30.79
			c15.897,0.05,31.142-14.862,31.411-30.727c0.279-16.453-13.428-29.929-30.842-30.314
			C157.057,209.261,143.243,223.35,143.106,239.865z M168.2,314.35c0.203,12.558,11.203,23.495,23.243,23.109
			c11.637-0.375,21.902-11.634,21.511-23.596c-0.401-12.287-10.792-22.614-22.735-22.595
			C178.504,291.292,168.004,302.296,168.2,314.35z M208.655,351.492c-8.686-0.227-15.929,7.01-16.244,16.231
			c-0.367,10.688,6.191,18.634,15.789,19.125c8.624,0.443,17.199-7.728,17.496-16.678
			C225.997,361.071,217.473,351.726,208.655,351.492z"/>
		<path fill-rule="evenodd" clip-rule="evenodd" d="M496.06,192.256c-0.321,29.855-17.769,47.604-45.709,47.813
			c-28.941,0.217-47.311-19.55-47.759-49.024c-0.378-24.623,22.99-46.729,48.003-46.707
			C476.418,144.364,496.351,165.368,496.06,192.256z"/>
	</g>
</g>
</svg>
