<?xml version="1.0" encoding="utf-8"?>
<!-- Generator: Adobe Illustrator 16.0.0, SVG Export Plug-In . SVG Version: 6.00 Build 0)  -->
<!DOCTYPE svg PUBLIC "-//W3C//DTD SVG 1.1//EN" "http://www.w3.org/Graphics/SVG/1.1/DTD/svg11.dtd">
<svg version="1.1" id="Layer_1" xmlns="http://www.w3.org/2000/svg" xmlns:xlink="http://www.w3.org/1999/xlink" x="0px" y="0px"
	 width="510.236px" height="510.236px" viewBox="42.522 165.827 510.236 510.236"
	 enable-background="new 42.522 165.827 510.236 510.236" xml:space="preserve">
<path fill="#FFFFFF" d="M406.066,252.408c-36.143,0-70.356,21.926-84.331,53.008v253.956
	c102.401-93.245,168.661-157.578,168.661-222.633C490.396,288.549,454.254,252.408,406.066,252.408 M406.066,204.218
	c74.211,0,132.52,58.068,132.52,132.52c0,90.836-81.922,165.289-206.008,277.81l-34.938,31.805l-34.937-31.805
	C138.616,502.027,56.695,427.575,56.695,336.738c0-74.452,58.309-132.52,132.52-132.52c41.925,0,82.163,19.517,108.425,50.117
	C323.904,223.735,364.141,204.218,406.066,204.218z"/>
</svg>
