<?xml version="1.0" encoding="utf-8"?>
<!-- Generator: Adobe Illustrator 16.0.0, SVG Export Plug-In . SVG Version: 6.00 Build 0)  -->
<!DOCTYPE svg PUBLIC "-//W3C//DTD SVG 1.1//EN" "http://www.w3.org/Graphics/SVG/1.1/DTD/svg11.dtd">
<svg version="1.1" id="Layer_1" xmlns="http://www.w3.org/2000/svg" xmlns:xlink="http://www.w3.org/1999/xlink" x="0px" y="0px"
	 width="510.236px" height="510.236px" viewBox="42.521 165.827 510.236 510.236"
	 enable-background="new 42.521 165.827 510.236 510.236" xml:space="preserve">
<path fill="#FFFFFF" d="M297.64,420.945c-53.836,0-99.39-35.295-114.826-84.048c-1.036,1.224-2.07,2.447-3.294,3.576
	c-14.87,14.871-36.519,19.482-50.448,20.8c-7.624,0.753-13.741-5.365-12.988-12.988c1.317-13.836,5.929-35.577,20.8-50.448
	c5.459-5.459,11.859-9.506,18.447-12.612c-6.588-3.012-12.988-7.153-18.447-12.612c-14.871-14.777-19.388-36.425-20.8-50.354
	c-0.753-7.624,5.364-13.742,12.988-12.989c13.835,1.317,35.578,5.929,50.448,20.801c4.519,4.518,8.189,9.788,11.012,15.153
	C210.487,206.542,250.958,180,297.641,180c66.542,0,120.473,53.93,120.473,120.473C418.113,367.015,364.181,420.945,297.64,420.945z
	 M86.813,633.938c0-77.932,53.083-143.345,124.99-162.263c5.648-1.506,11.483,0.848,14.965,5.459l58.825,78.401
	c6.024,8.001,18.071,8.001,24.095,0l58.824-78.401c3.483-4.611,9.318-6.965,14.965-5.459
	c71.907,18.918,124.991,84.331,124.991,162.263c0,15.435-12.518,27.952-27.954,27.952H114.766
	C99.33,661.89,86.813,649.373,86.813,633.938z M237.404,270.354c-8.282,0-15.06,6.777-15.06,15.06
	c0,8.282,6.777,15.059,15.06,15.059h120.473c8.282,0,15.059-6.777,15.059-15.059c0-8.283-6.776-15.06-15.059-15.06H237.404z"/>
</svg>
